<svg xmlns="http://www.w3.org/2000/svg" viewBox="0 0 96 96" role="img" aria-label="Simple Track logo">
  <defs>
    <linearGradient id="bg" x1="18" y1="12" x2="82" y2="86" gradientUnits="userSpaceOnUse">
      <stop offset="0" stop-color="#0EA5E9"/>
      <stop offset="0.48" stop-color="#2563EB"/>
      <stop offset="1" stop-color="#10B981"/>
    </linearGradient>
    <linearGradient id="shine" x1="23" y1="18" x2="72" y2="84" gradientUnits="userSpaceOnUse">
      <stop offset="0" stop-color="#FFFFFF" stop-opacity="0.42"/>
      <stop offset="1" stop-color="#FFFFFF" stop-opacity="0"/>
    </linearGradient>
  </defs>
  <rect width="96" height="96" rx="24" fill="url(#bg)"/>
  <path d="M16 31c0-6.1 4.9-11 11-11h42c6.1 0 11 4.9 11 11v34c0 6.1-4.9 11-11 11H27c-6.1 0-11-4.9-11-11V31Z" fill="#FFFFFF" opacity="0.96"/>
  <path d="M24 32l20.9 18.3c1.8 1.6 4.5 1.6 6.3 0L72 32" fill="none" stroke="#155EEF" stroke-width="5.5" stroke-linecap="round" stroke-linejoin="round"/>
  <path d="M25 67l16.8-17.1M71 67L54.2 49.9" fill="none" stroke="#155EEF" stroke-width="4.5" stroke-linecap="round" opacity="0.32"/>
  <circle cx="72" cy="68" r="14" fill="#12B76A"/>
  <path d="M65.5 68.2l4.2 4.1 8.8-9" fill="none" stroke="#FFFFFF" stroke-width="4.6" stroke-linecap="round" stroke-linejoin="round"/>
  <rect width="96" height="96" rx="24" fill="url(#shine)"/>
</svg>
